<svg version="1.1" xmlns="http://www.w3.org/2000/svg" xmlns:xlink="http://www.w3.org/1999/xlink" width="265.000000pt" height="310.000000pt" viewBox="0,0,218.82813,256"><g fill="#2f6cf7" fill-rule="nonzero" stroke="none" stroke-width="1" stroke-linecap="butt" stroke-linejoin="miter" stroke-miterlimit="10" stroke-dasharray="" stroke-dashoffset="0" font-family="none" font-weight="none" font-size="none" text-anchor="none" style="mix-blend-mode: normal"><g transform="translate(-0.00547,0) scale(1.00005,1)"><g><g transform="translate(-0.00576,-0.00055) scale(1.00005,1)"><g><g transform="translate(1.25302,-0.44483) scale(0.82581,0.82581)"><g transform="translate(0,310) scale(0.1,-0.1)"><path d="M1792,3030c-75,-18 -102,-71 -102,-200c0,-64 -6,-107 -19,-146c-57,-160 -205,-264 -380,-264c-161,0 -359,-49 -511,-125c-472,-238 -728,-738 -645,-1255c40,-245 151,-459 334,-641c190,-190 410,-300 683,-340c98,-14 300,-6 403,16c482,104 839,474 930,964c10,55 15,144 15,266c0,173 -1,184 -23,216c-46,70 -56,71 -387,64c-190,-4 -304,-11 -319,-18c-13,-7 -34,-25 -45,-40c-19,-26 -22,-46 -26,-210c-5,-170 -7,-186 -32,-239c-35,-76 -109,-153 -183,-192c-56,-29 -67,-31 -165,-31c-96,0 -110,3 -165,29c-166,82 -260,280 -212,447c33,111 133,216 247,260c42,16 92,24 205,30c307,18 498,77 673,209c195,146 348,362 404,565c19,71 22,106 22,312c1,219 0,233 -20,259c-11,15 -33,37 -48,48c-26,20 -42,21 -314,23c-158,1 -302,-2 -320,-7z"></path></g></g></g></g></g></g></g></svg>