<?xml version="1.0"?>
<svg width="1500" height="2890.0081" xmlns="http://www.w3.org/2000/svg" xmlns:svg="http://www.w3.org/2000/svg" enable-background="new 0 0 7127.6 2890" version="1.1" xml:space="preserve">
 <metadata id="metadata4570">image/svg+xml</metadata>
 <linearGradient id="SVGID_1_" x1="0.17" x2="1.59" y1="0.64" y2="0.2">
  <stop id="stop4431" offset="0" stop-color="#F69923"/>
  <stop id="stop4433" offset="0.31" stop-color="#F79A23"/>
  <stop id="stop4435" offset="0.84" stop-color="#E97826"/>
 </linearGradient>
 <linearGradient id="SVGID_2_" x1="-2.18" x2="0.75" y1="3.95" y2="0.14">
  <stop id="stop4456" offset="0.32" stop-color="#9E2064"/>
  <stop id="stop4458" offset="0.63" stop-color="#C92037"/>
  <stop id="stop4460" offset="0.75" stop-color="#CD2335"/>
  <stop id="stop4462" offset="1" stop-color="#E97826"/>
 </linearGradient>
 <linearGradient id="SVGID_3_" x1="-0.21" x2="1.25" y1="1.93" y2="-1.36">
  <stop id="stop4467" offset="0" stop-color="#282662"/>
  <stop id="stop4469" offset="0.1" stop-color="#662E8D"/>
  <stop id="stop4471" offset="0.79" stop-color="#9F2064"/>
  <stop id="stop4473" offset="0.95" stop-color="#CD2032"/>
 </linearGradient>
 <linearGradient id="SVGID_4_" x1="-0.8" x2="1.46" y1="1.71" y2="-0.44">
  <stop id="stop4478" offset="0.32" stop-color="#9E2064"/>
  <stop id="stop4480" offset="0.63" stop-color="#C92037"/>
  <stop id="stop4482" offset="0.75" stop-color="#CD2335"/>
  <stop id="stop4484" offset="1" stop-color="#E97826"/>
 </linearGradient>
 <linearGradient id="SVGID_5_" x1="-0.18" x2="1.65" y1="0.77" y2="-0.41">
  <stop id="stop4489" offset="0" stop-color="#282662"/>
  <stop id="stop4491" offset="0.1" stop-color="#662E8D"/>
  <stop id="stop4493" offset="0.79" stop-color="#9F2064"/>
  <stop id="stop4495" offset="0.95" stop-color="#CD2032"/>
 </linearGradient>
 <linearGradient id="SVGID_6_" x1="-0.35" x2="1.11" y1="1.88" y2="-0.51">
  <stop id="stop4500" offset="0.32" stop-color="#9E2064"/>
  <stop id="stop4502" offset="0.63" stop-color="#C92037"/>
  <stop id="stop4504" offset="0.75" stop-color="#CD2335"/>
  <stop id="stop4506" offset="1" stop-color="#E97826"/>
 </linearGradient>
 <linearGradient id="SVGID_7_" x1="-1.3" x2="0.66" y1="4.66" y2="0.17">
  <stop id="stop4511" offset="0.32" stop-color="#9E2064"/>
  <stop id="stop4513" offset="0.63" stop-color="#C92037"/>
  <stop id="stop4515" offset="0.75" stop-color="#CD2335"/>
  <stop id="stop4517" offset="1" stop-color="#E97826"/>
 </linearGradient>
 <linearGradient id="SVGID_8_" x1="-45.53" x2="28.61" y1="630.91" y2="-384.27">
  <stop id="stop4526" offset="0.32" stop-color="#9E2064"/>
  <stop id="stop4528" offset="0.63" stop-color="#C92037"/>
  <stop id="stop4530" offset="0.75" stop-color="#CD2335"/>
  <stop id="stop4532" offset="1" stop-color="#E97826"/>
 </linearGradient>
 <linearGradient id="SVGID_9_" x1="-158.7" x2="77.98" y1="2220.01" y2="-1079.08">
  <stop id="stop4541" offset="0.32" stop-color="#9E2064"/>
  <stop id="stop4543" offset="0.63" stop-color="#C92037"/>
  <stop id="stop4545" offset="0.75" stop-color="#CD2335"/>
  <stop id="stop4547" offset="1" stop-color="#E97826"/>
 </linearGradient>
 <linearGradient id="SVGID_10_" x1="-Infinity" x2="Infinity" y1="Infinity" y2="-Infinity">
  <stop id="stop4556" offset="0.32" stop-color="#9E2064"/>
  <stop id="stop4558" offset="0.63" stop-color="#C92037"/>
  <stop id="stop4560" offset="0.75" stop-color="#CD2335"/>
  <stop id="stop4562" offset="1" stop-color="#E97826"/>
 </linearGradient>
 <g class="layer">
  <title>Layer 1</title>
  <path d="m1230.1,13.71c-45.3,26.8 -120.6,102.5 -210.5,212.3l82.6,155.9c58,-82.9 116.9,-157.5 176.3,-221.2c4.6,-5.1 7,-7.5 7,-7.5c-2.3,2.5 -4.6,5 -7,7.5c-19.2,21.2 -77.5,89.2 -165.5,224.4c84.7,-4.2 214.9,-21.6 321.1,-39.7c31.6,-177 -31,-258 -31,-258c0,0 -79.7,-128.8 -173,-73.7z" fill="url(#SVGID_1_)" id="path4437"/>
  <path d="m1090.2,903.11c0.6,-0.1 1.2,-0.2 1.8,-0.3l-11.9,1.3c-0.7,0.3 -1.4,0.7 -2.1,1c4.1,-0.7 8.2,-1.4 12.2,-2z" fill="none" id="path4439"/>
  <path d="m1005.9,1182.31c-6.7,1.5 -13.7,2.7 -20.7,3.7c7.1,-1 14,-2.2 20.7,-3.7z" fill="none" id="path4441"/>
  <path d="m432.9,1808.81c0.9,-2.3 1.8,-4.7 2.6,-7c18.2,-48 36.2,-94.7 54,-140.1c20,-51 39.8,-100.4 59.3,-148.3c20.6,-50.4 40.9,-99.2 60.9,-146.3c21,-49.4 41.7,-97 62,-142.8c16.5,-37.3 32.8,-73.4 48.9,-108.3c5.4,-11.7 10.7,-23.2 16,-34.6c10.5,-22.7 21,-44.8 31.3,-66.5c9.5,-20 19,-39.6 28.3,-58.8c3.1,-6.4 6.2,-12.8 9.3,-19.1c0.5,-1 1,-2 1.5,-3.1l-10.2,1.1l-8,-15.9c-0.8,1.6 -1.6,3.1 -2.4,4.6c-14.5,28.8 -28.9,57.9 -43.1,87.2c-8.2,16.9 -16.4,34 -24.6,51c-22.6,47.4 -44.8,95.2 -66.6,143.3c-22.1,48.6 -43.7,97.5 -64.9,146.5c-20.8,48.1 -41.3,96.2 -61.2,144.2c-20,48 -39.5,95.7 -58.5,143.2c-19.9,49.5 -39.2,98.7 -58,147.2c-4.2,10.9 -8.5,21.9 -12.7,32.8c-15,39.2 -29.7,77.8 -44,116l12.7,25.1l11.4,-1.2c0.4,-1.1 0.8,-2.3 1.3,-3.4c18.5,-50.2 36.7,-99.2 54.7,-146.8z" fill="none" id="path4443"/>
  <path d="m980,1186.81l0,0c0.1,0 0.1,0 0.1,-0.1c0,0.1 0,0.1 -0.1,0.1z" fill="none" id="path4445"/>
  <path d="m952.6,1323.01c-10.6,1.9 -21.4,3.8 -32.5,5.7c-0.1,0 -0.1,0.1 -0.2,0.1c5.6,-0.8 11.2,-1.7 16.6,-2.6c5.5,-1 10.8,-2.1 16.1,-3.2z" fill="#be202e" id="path4447"/>
  <path d="m952.6,1323.01c-10.6,1.9 -21.4,3.8 -32.5,5.7c-0.1,0 -0.1,0.1 -0.2,0.1c5.6,-0.8 11.2,-1.7 16.6,-2.6c5.5,-1 10.8,-2.1 16.1,-3.2z" fill="#be202e" id="path4449" opacity="0.35"/>
  <path d="m980.3,1186.71c-0.1,0 -0.1,0 0,0c-0.1,0.1 -0.2,0.1 -0.2,0.1c1.8,-0.2 3.5,-0.5 5.2,-0.8c7,-1 13.9,-2.2 20.7,-3.7c-8.5,1.5 -17,2.9 -25.7,4.4l0,0l0,0z" fill="#be202e" id="path4451"/>
  <path d="m980.3,1186.71c-0.1,0 -0.1,0 0,0c-0.1,0.1 -0.2,0.1 -0.2,0.1c1.8,-0.2 3.5,-0.5 5.2,-0.8c7,-1 13.9,-2.2 20.7,-3.7c-8.5,1.5 -17,2.9 -25.7,4.4l0,0l0,0z" fill="#be202e" id="path4453" opacity="0.35"/>
  <path d="m858.6,784.71c25.1,-46.9 50.5,-92.8 76.2,-137.4c26.7,-46.4 53.7,-91.3 80.9,-134.7c1.6,-2.6 3.2,-5.2 4.8,-7.7c27,-42.7 54.2,-83.7 81.6,-122.9l-82.6,-156c-6.2,7.6 -12.5,15.3 -18.8,23.2c-23.8,29.7 -48.6,61.6 -73.9,95.5c-28.6,38.2 -58,78.9 -87.8,121.7c-27.6,39.5 -55.5,80.9 -83.5,123.7c-23.8,36.5 -47.7,74 -71.4,112.5c-0.9,1.4 -1.8,2.9 -2.6,4.3l107.5,212.3c22.8,-45.6 46.1,-90.5 69.6,-134.5z" fill="url(#SVGID_2_)" id="path4464"/>
  <path d="m369,1981.01c-14.2,39.1 -28.5,78.9 -42.9,119.6c-0.2,0.6 -0.4,1.2 -0.6,1.8c-2,5.7 -4.1,11.5 -6.1,17.2c-9.7,27.4 -18,52.1 -37.3,108.2c31.7,14.5 57.1,52.5 81.1,95.6c-2.6,-44.7 -21,-86.6 -56.2,-119.1c156.1,7 290.6,-32.4 360.1,-146.6c6.2,-10.2 11.9,-20.9 17,-32.2c-31.6,40.1 -70.8,57.1 -144.5,53c-0.2,0.1 -0.3,0.1 -0.5,0.2c0.2,-0.1 0.3,-0.1 0.5,-0.2c108.6,-48.6 163.1,-95.3 211.2,-172.6c11.4,-18.3 22.5,-38.4 33.8,-60.6c-94.9,97.5 -205,125.3 -320.9,104.2l-86.9,9.5c-2.4,7.3 -5.1,14.6 -7.8,22z" fill="url(#SVGID_3_)" id="path4475"/>
  <path d="m409.6,1786.31c18.8,-48.5 38.1,-97.7 58,-147.2c19,-47.4 38.5,-95.2 58.5,-143.2c20,-48 40.4,-96.1 61.2,-144.2c21.2,-49 42.9,-97.8 64.9,-146.5c21.8,-48.1 44,-95.9 66.6,-143.3c8.1,-17.1 16.3,-34.1 24.6,-51c14.2,-29.3 28.6,-58.4 43.1,-87.2c0.8,-1.6 1.6,-3.1 2.4,-4.6l-107.5,-212.3c-1.8,2.9 -3.5,5.8 -5.3,8.6c-25.1,40.9 -50,82.7 -74.4,125.4c-24.7,43.1 -49,87.1 -72.7,131.7c-20,37.6 -39.6,75.6 -58.6,113.9c-3.8,7.8 -7.6,15.5 -11.3,23.2c-23.4,48.2 -44.6,94.8 -63.7,139.5c-21.7,50.7 -40.7,99.2 -57.5,145.1c-11,30.2 -21,59.4 -30.1,87.4c-7.5,24 -14.7,47.9 -21.5,71.8c-16,56.3 -29.9,112.4 -41.2,168.3l107.9,213.4c14.3,-38.1 28.9,-76.8 44,-116c4.1,-10.9 8.4,-21.8 12.6,-32.8z" fill="url(#SVGID_4_)" id="path4486"/>
  <path d="m243.5,1729.41c-13.6,68.2 -23.2,136.2 -28,203.8c-0.2,2.4 -0.4,4.7 -0.5,7.1c-33.7,-54 -124,-106.8 -123.8,-106.2c64.6,93.7 113.7,186.7 120.9,278c-34.6,7.1 -82,-3.2 -136.8,-23.3c57.1,52.5 100,67 116.7,70.9c-52.5,3.3 -107.1,39.3 -162.1,80.8c80.5,-32.8 145.5,-45.8 192.1,-35.3c-73.9,209 -147.9,439.8 -222,684.8c22.7,-6.7 36.2,-21.9 43.9,-42.6c13.2,-44.4 100.8,-335.6 238,-718.2c3.9,-10.9 7.8,-21.8 11.8,-32.9c1.1,-3 2.2,-6.1 3.3,-9.2c14.5,-40.1 29.5,-81.1 45.1,-122.9c3.5,-9.5 7.1,-19 10.7,-28.6c0.1,-0.2 0.1,-0.4 0.2,-0.6l-107.9,-213.2c-0.5,2.6 -1.1,5.1 -1.6,7.6z" fill="url(#SVGID_5_)" id="path4497"/>
  <path d="m805.6,937.01c-3.1,6.3 -6.2,12.7 -9.3,19.1c-9.3,19.2 -18.8,38.8 -28.3,58.8c-10.3,21.7 -20.7,43.9 -31.3,66.5c-5.3,11.4 -10.6,22.9 -16,34.6c-16.1,35 -32.4,71.1 -48.9,108.3c-20.3,45.8 -41,93.4 -62,142.8c-20,47.1 -40.3,95.9 -60.9,146.3c-19.5,47.9 -39.3,97.3 -59.3,148.3c-17.8,45.4 -35.9,92.1 -54,140.1c-0.9,2.3 -1.8,4.7 -2.6,7c-18,47.6 -36.2,96.6 -54.6,146.8c-0.4,1.1 -0.8,2.3 -1.3,3.4l86.9,-9.5c-1.7,-0.3 -3.5,-0.5 -5.2,-0.9c103.9,-13 242.1,-90.6 331.4,-186.5c41.1,-44.2 78.5,-96.3 113,-157.3c25.7,-45.4 49.8,-95.8 72.8,-151.5c20.1,-48.7 39.4,-101.4 58,-158.6c-23.9,12.6 -51.2,21.8 -81.4,28.2c-5.3,1.1 -10.7,2.2 -16.1,3.1c-5.5,1 -11,1.8 -16.6,2.6l0,0l0,0c0.1,0 0.1,-0.1 0.2,-0.1c96.9,-37.3 158,-109.2 202.4,-197.4c-25.5,17.4 -66.9,40.1 -116.6,51.1c-6.7,1.5 -13.7,2.7 -20.7,3.7c-1.7,0.3 -3.5,0.6 -5.2,0.8l0,0l0,0c0.1,0 0.1,0 0.1,-0.1c0,0 0.1,0 0.1,0l0,0c33.6,-14.1 62,-29.8 86.6,-48.4c5.3,-4 10.4,-8.1 15.3,-12.3c7.5,-6.5 14.7,-13.3 21.5,-20.5c4.4,-4.6 8.6,-9.3 12.7,-14.2c9.6,-11.5 18.7,-23.9 27.1,-37.3c2.6,-4.1 5.1,-8.3 7.6,-12.6c3.2,-6.2 6.3,-12.3 9.3,-18.3c13.5,-27.2 24.4,-51.5 33,-72.8c4.3,-10.6 8.1,-20.5 11.3,-29.7c1.3,-3.7 2.5,-7.2 3.7,-10.6c3.4,-10.2 6.2,-19.3 8.4,-27.3c3.3,-12 5.3,-21.5 6.4,-28.4l0,0l0,0c-3.3,2.6 -7.1,5.2 -11.3,7.7c-29.3,17.5 -79.5,33.4 -119.9,40.8l79.8,-8.8l-79.8,8.8c-0.6,0.1 -1.2,0.2 -1.8,0.3c-4,0.7 -8.1,1.3 -12.2,2c0.7,-0.3 1.4,-0.7 2.1,-1l-273,29.9c-0.4,1.1 -0.9,2.1 -1.4,3.1z" fill="url(#SVGID_6_)" id="path4508"/>
  <path d="m1112.9,385.11c-24.3,37.3 -50.8,79.6 -79.4,127.5c-1.5,2.5 -3,5.1 -4.5,7.6c-24.6,41.5 -50.8,87.1 -78.3,137c-23.8,43.1 -48.5,89.3 -74.3,139c-22.4,43.3 -45.6,89.2 -69.4,137.8l273,-29.9c79.5,-36.6 115.1,-69.7 149.6,-117.6c9.2,-13.2 18.4,-27 27.5,-41.3c28,-43.8 55.6,-92 80.1,-139.9c23.7,-46.3 44.7,-92.2 60.7,-133.5c10.2,-26.3 18.4,-50.8 24.1,-72.3c5,-19 8.9,-36.9 11.9,-54.1c-106,18.1 -236.3,35.5 -321,39.7z" fill="url(#SVGID_7_)" id="path4519"/>
  <path d="m936.5,1326.11c-5.5,1 -11,1.8 -16.6,2.6l0,0c5.6,-0.7 11.1,-1.6 16.6,-2.6z" fill="#be202e" id="path4521"/>
  <path d="m936.5,1326.11c-5.5,1 -11,1.8 -16.6,2.6l0,0c5.6,-0.7 11.1,-1.6 16.6,-2.6z" fill="#be202e" id="path4523" opacity="0.35"/>
  <path d="m936.5,1326.11c-5.5,1 -11,1.8 -16.6,2.6l0,0c5.6,-0.7 11.1,-1.6 16.6,-2.6z" fill="url(#SVGID_8_)" id="path4534"/>
  <path d="m980,1186.81c1.8,-0.2 3.5,-0.5 5.2,-0.8c-1.7,0.3 -3.4,0.6 -5.2,0.8l0,0z" fill="#be202e" id="path4536"/>
  <path d="m980,1186.81c1.8,-0.2 3.5,-0.5 5.2,-0.8c-1.7,0.3 -3.4,0.6 -5.2,0.8l0,0z" fill="#be202e" id="path4538" opacity="0.35"/>
  <path d="m980,1186.81c1.8,-0.2 3.5,-0.5 5.2,-0.8c-1.7,0.3 -3.4,0.6 -5.2,0.8l0,0z" fill="url(#SVGID_9_)" id="path4549"/>
  <path d="m980.2,1186.71c0,0 0,0 0,0l0,0l0,0l0,0c0,0 0,0 0,0z" fill="#be202e" id="path4551"/>
  <path d="m980.2,1186.71c0,0 0,0 0,0l0,0l0,0l0,0c0,0 0,0 0,0z" fill="#be202e" id="path4553" opacity="0.35"/>
  <path d="m980.2,1186.71c0,0 0,0 0,0l0,0l0,0l0,0c0,0 0,0 0,0z" fill="url(#SVGID_10_)" id="path4564"/>
 </g>
</svg>